<svg width="1920" height="1080" viewBox="0 0 1920 1080" fill="none" xmlns="http://www.w3.org/2000/svg">
<g clip-path="url(#clip0_17_981)">
<path d="M0 271L29.2 272.8C58.3 274.7 116.7 278.3 174.8 291C233 303.7 291 325.3 349.2 337.8C407.3 350.3 465.7 353.7 523.8 344.7C582 335.7 640 314.3 698.2 310.8C756.3 307.3 814.7 321.7 872.8 330.7C931 339.7 989 343.3 1047.2 332.5C1105.3 321.7 1163.7 296.3 1221.8 292.7C1280 289 1338 307 1396.2 314.2C1454.3 321.3 1512.7 317.7 1570.8 305C1629 292.3 1687 270.7 1745.2 281.5C1803.3 292.3 1861.7 335.7 1890.8 357.3L1920 379V0H1890.8C1861.7 0 1803.3 0 1745.2 0C1687 0 1629 0 1570.8 0C1512.7 0 1454.3 0 1396.2 0C1338 0 1280 0 1221.8 0C1163.7 0 1105.3 0 1047.2 0C989 0 931 0 872.8 0C814.7 0 756.3 0 698.2 0C640 0 582 0 523.8 0C465.7 0 407.3 0 349.2 0C291 0 233 0 174.8 0C116.7 0 58.3 0 29.2 0H0V271Z" fill="#FDC7BC"/>
<path d="M0 411L29.2 418.3C58.3 425.7 116.7 440.3 174.8 456.7C233 473 291 491 349.2 501.7C407.3 512.3 465.7 515.7 523.8 504.8C582 494 640 469 698.2 461.8C756.3 454.7 814.7 465.3 872.8 476.2C931 487 989 498 1047.2 487.2C1105.3 476.3 1163.7 443.7 1221.8 436.3C1280 429 1338 447 1396.2 452.5C1454.3 458 1512.7 451 1570.8 443.8C1629 436.7 1687 429.3 1745.2 440.2C1803.3 451 1861.7 480 1890.8 494.5L1920 509V377L1890.8 355.3C1861.7 333.7 1803.3 290.3 1745.2 279.5C1687 268.7 1629 290.3 1570.8 303C1512.7 315.7 1454.3 319.3 1396.2 312.2C1338 305 1280 287 1221.8 290.7C1163.7 294.3 1105.3 319.7 1047.2 330.5C989 341.3 931 337.7 872.8 328.7C814.7 319.7 756.3 305.3 698.2 308.8C640 312.3 582 333.7 523.8 342.7C465.7 351.7 407.3 348.3 349.2 335.8C291 323.3 233 301.7 174.8 289C116.7 276.3 58.3 272.7 29.2 270.8L0 269V411Z" fill="#FBBAAE"/>
<path d="M0 725L29.2 732.2C58.3 739.3 116.7 753.7 174.8 755.3C233 757 291 746 349.2 751.3C407.3 756.7 465.7 778.3 523.8 787.3C582 796.3 640 792.7 698.2 789.2C756.3 785.7 814.7 782.3 872.8 782.3C931 782.3 989 785.7 1047.2 776.7C1105.3 767.7 1163.7 746.3 1221.8 737.3C1280 728.3 1338 731.7 1396.2 735.2C1454.3 738.7 1512.7 742.3 1570.8 747.8C1629 753.3 1687 760.7 1745.2 764.3C1803.3 768 1861.7 768 1890.8 768H1920V507L1890.8 492.5C1861.7 478 1803.3 449 1745.2 438.2C1687 427.3 1629 434.7 1570.8 441.8C1512.7 449 1454.3 456 1396.2 450.5C1338 445 1280 427 1221.8 434.3C1163.7 441.7 1105.3 474.3 1047.2 485.2C989 496 931 485 872.8 474.2C814.7 463.3 756.3 452.7 698.2 459.8C640 467 582 492 523.8 502.8C465.7 513.7 407.3 510.3 349.2 499.7C291 489 233 471 174.8 454.7C116.7 438.3 58.3 423.7 29.2 416.3L0 409V725Z" fill="#F9ADA0"/>
<path d="M0 930L29.2 937.2C58.3 944.3 116.7 958.7 174.8 960.5C233 962.3 291 951.7 349.2 951.7C407.3 951.7 465.7 962.3 523.8 967.7C582 973 640 973 698.2 971.2C756.3 969.3 814.7 965.7 872.8 963.8C931 962 989 962 1047.2 960.2C1105.3 958.3 1163.7 954.7 1221.8 951.2C1280 947.7 1338 944.3 1396.2 942.7C1454.3 941 1512.7 941 1570.8 941C1629 941 1687 941 1745.2 939.2C1803.3 937.3 1861.7 933.7 1890.8 931.8L1920 930V766H1890.8C1861.7 766 1803.3 766 1745.2 762.3C1687 758.7 1629 751.3 1570.8 745.8C1512.7 740.3 1454.3 736.7 1396.2 733.2C1338 729.7 1280 726.3 1221.8 735.3C1163.7 744.3 1105.3 765.7 1047.2 774.7C989 783.7 931 780.3 872.8 780.3C814.7 780.3 756.3 783.7 698.2 787.2C640 790.7 582 794.3 523.8 785.3C465.7 776.3 407.3 754.7 349.2 749.3C291 744 233 755 174.8 753.3C116.7 751.7 58.3 737.3 29.2 730.2L0 723V930Z" fill="#F9A393"/>
<path d="M0 1081H29.2C58.3 1081 116.7 1081 174.8 1081C233 1081 291 1081 349.2 1081C407.3 1081 465.7 1081 523.8 1081C582 1081 640 1081 698.2 1081C756.3 1081 814.7 1081 872.8 1081C931 1081 989 1081 1047.2 1081C1105.3 1081 1163.7 1081 1221.8 1081C1280 1081 1338 1081 1396.2 1081C1454.3 1081 1512.7 1081 1570.8 1081C1629 1081 1687 1081 1745.2 1081C1803.3 1081 1861.7 1081 1890.8 1081H1920V928L1890.8 929.8C1861.7 931.7 1803.3 935.3 1745.2 937.2C1687 939 1629 939 1570.8 939C1512.7 939 1454.3 939 1396.2 940.7C1338 942.3 1280 945.7 1221.8 949.2C1163.7 952.7 1105.3 956.3 1047.2 958.2C989 960 931 960 872.8 961.8C814.7 963.7 756.3 967.3 698.2 969.2C640 971 582 971 523.8 965.7C465.7 960.3 407.3 949.7 349.2 949.7C291 949.7 233 960.3 174.8 958.5C116.7 956.7 58.3 942.3 29.2 935.2L0 928V1081Z" fill="#F99886"/>
</g>
<defs>
<clipPath id="clip0_17_981">
<rect width="1920" height="1080" fill="white"/>
</clipPath>
</defs>
</svg>
