<svg width="392" height="392" viewBox="0 0 392 392" fill="none" xmlns="http://www.w3.org/2000/svg">
<circle cx="196" cy="196" r="196" fill="url(#paint0_linear_127_92)" fill-opacity="0.4"/>
<circle cx="196" cy="196" r="195.5" stroke="url(#paint1_linear_127_92)" stroke-opacity="0.2"/>
<circle cx="196" cy="196" r="162" fill="#E2E2E4" fill-opacity="0.4"/>
<circle cx="196" cy="196" r="161" stroke="#E1E1E1" stroke-opacity="0.4" stroke-width="2"/>
<circle cx="196" cy="196" r="129.5" stroke="#C6C6C6"/>
<circle cx="196" cy="196" r="98" fill="#F1F1F1" fill-opacity="0.6"/>
<path d="M234.763 144.339L236.882 147.336L266.366 131.777L259.821 120.236L234.763 144.339Z" fill="#353131"/>
<path d="M228.002 134.391L231.54 137.857L261.807 104.198L250.104 95.8509L228.002 134.391Z" fill="#353131"/>
<path d="M197.853 244.606C197.626 244.891 197.371 245.151 197.092 245.382C194.878 247.211 191.63 246.871 189.827 244.606C177.236 228.788 167.822 215.077 161.563 203.465C155.288 191.827 152.25 182.42 152.25 175.177C152.25 151.739 170.892 132.778 193.84 132.778C216.788 132.778 235.43 151.739 235.43 175.177C235.43 182.42 232.392 191.827 226.117 203.465C219.858 215.077 210.444 228.788 197.853 244.606Z" fill="white" stroke="#353131" stroke-width="2.5"/>
<path fill-rule="evenodd" clip-rule="evenodd" d="M162.044 194.254C163.071 196.569 164.268 199.018 165.643 201.604C171.493 212.61 180.345 225.703 192.279 240.909C192.996 241.822 194.242 241.94 195.096 241.224C195.207 241.131 195.309 241.026 195.401 240.909C207.336 225.703 216.187 212.61 222.037 201.604C227.934 190.51 230.56 181.941 230.56 175.671C230.56 160.17 221.626 146.9 208.858 140.966C207.145 146.841 204.806 152.449 201.919 157.714C208.837 160.85 213.657 167.89 213.657 176.072C213.657 187.172 204.785 196.171 193.84 196.171C186.465 196.171 180.03 192.084 176.618 186.022C172.072 189.227 167.193 191.992 162.044 194.254Z" fill="#C7C7C7"/>
<path d="M172.886 242.918C173.566 242.797 174.018 242.147 173.896 241.468C173.775 240.788 173.125 240.336 172.446 240.458L172.886 242.918ZM163.942 242.446C163.28 242.644 162.905 243.341 163.103 244.002C163.301 244.664 163.997 245.039 164.659 244.841L163.942 242.446ZM159.709 246.613C160.343 246.34 160.636 245.605 160.363 244.971C160.09 244.337 159.354 244.044 158.72 244.317L159.709 246.613ZM215.879 240.575C215.2 240.449 214.547 240.897 214.421 241.575C214.294 242.254 214.742 242.907 215.421 243.033L215.879 240.575ZM172.446 240.458C169.365 241.009 166.51 241.677 163.942 242.446L164.659 244.841C167.124 244.103 169.885 243.456 172.886 242.918L172.446 240.458ZM158.72 244.317C156.064 245.461 153.865 246.773 152.31 248.245C150.755 249.719 149.75 251.451 149.75 253.395H152.25C152.25 252.374 152.77 251.254 154.03 250.06C155.292 248.865 157.2 247.694 159.709 246.613L158.72 244.317ZM149.75 253.395C149.75 255.834 151.321 257.93 153.621 259.639C155.945 261.366 159.228 262.868 163.173 264.108C171.077 266.592 181.919 268.109 193.84 268.109V265.609C182.101 265.609 171.523 264.112 163.922 261.723C160.114 260.526 157.124 259.127 155.112 257.633C153.077 256.12 152.25 254.675 152.25 253.395H149.75ZM193.84 268.109C205.761 268.109 216.603 266.592 224.507 264.108C228.452 262.868 231.735 261.366 234.059 259.639C236.359 257.93 237.93 255.834 237.93 253.395H235.43C235.43 254.675 234.603 256.12 232.568 257.633C230.556 259.127 227.566 260.526 223.758 261.723C216.157 264.112 205.579 265.609 193.84 265.609V268.109ZM237.93 253.395C237.93 250.176 235.219 247.547 231.48 245.529C227.638 243.456 222.241 241.76 215.879 240.575L215.421 243.033C221.648 244.193 226.766 245.826 230.292 247.729C233.921 249.687 235.43 251.681 235.43 253.395H237.93Z" fill="#353131"/>
<circle cx="193.84" cy="175.592" r="19.558" stroke="#333334" stroke-width="2.5"/>
<defs>
<linearGradient id="paint0_linear_127_92" x1="196" y1="0" x2="196" y2="392" gradientUnits="userSpaceOnUse">
<stop stop-color="#E2E2E4"/>
<stop offset="1" stop-color="#E2E2E4" stop-opacity="0"/>
</linearGradient>
<linearGradient id="paint1_linear_127_92" x1="196" y1="0" x2="196" y2="468" gradientUnits="userSpaceOnUse">
<stop stop-color="#E4E4E4"/>
<stop offset="1" stop-color="#222222" stop-opacity="0"/>
</linearGradient>
</defs>
</svg>
