<svg width="179" height="179" viewBox="0 0 179 179" fill="none" xmlns="http://www.w3.org/2000/svg">
<path d="M53.816 55.4886C69.8358 58.6033 80.9078 53.3583 87.9647 47.3191C91.4869 44.3049 94.0048 41.0972 95.6426 38.6432C96.4619 37.4157 97.0619 36.3752 97.4581 35.6395C97.6562 35.2716 97.8035 34.9797 97.9017 34.7786C97.9508 34.678 97.9877 34.6002 98.0126 34.5468C98.0239 34.5226 98.0327 34.5034 98.0391 34.4895C101.103 29.3081 105.148 27.2406 109.401 27.2565C113.701 27.2726 118.301 29.4189 122.402 32.8523C126.497 36.2803 130.046 40.9526 132.246 45.9282C134.448 50.9079 135.278 56.1446 134.01 60.725C132.689 65.4993 132.494 69.0701 133.271 72.1983C134.046 75.3234 135.777 77.9461 138.184 80.8421C139.309 82.1967 140.587 83.6163 141.997 85.1828C146.62 90.3204 152.666 97.0382 159.441 108.224C161.907 112.295 162.326 116.035 161.095 119.253C159.858 122.486 156.917 125.294 152.454 127.401C143.524 131.617 128.7 132.923 110.286 129.321C105.901 128.463 102.089 130.144 98.5328 132.865C95.8739 134.899 93.3021 137.562 90.7056 140.25C89.847 141.139 88.9857 142.03 88.1177 142.903C84.597 146.443 80.9452 149.695 76.7939 151.425C72.6743 153.142 68.0318 153.372 62.4793 150.795C57.5846 148.523 55.2329 145.737 53.9539 142.612C52.9134 140.069 52.574 137.299 52.2064 134.298C52.1146 133.549 52.0211 132.785 51.9145 132.007C51.385 128.144 50.5346 124.018 47.898 119.857C45.2609 115.695 40.8655 111.542 33.3169 107.56C25.935 103.665 21.6023 98.0932 19.7154 92.0352C17.826 85.969 18.3788 79.3804 20.8352 73.4518C25.7499 61.5897 38.2372 52.4597 53.816 55.4886Z" fill="#FFEFEF" stroke="#F22020"/>
<path d="M91.8091 95.6586C89.024 100.996 88.3213 103.833 79.8729 109.129C79.8073 109.172 79.7581 109.236 79.7334 109.31C78.3837 113.495 76.0989 117.317 73.0523 120.487C73.0113 120.529 72.9824 120.582 72.9688 120.639C72.9551 120.696 72.9572 120.756 72.9748 120.812C73.9204 123.959 74.9438 129.633 72.0964 134.283C67.911 141.13 64.8111 136.996 65.4566 135.446C66.0095 134.118 70.7323 131.265 69.642 124.14C69.6328 124.083 69.6092 124.029 69.5732 123.984C69.5373 123.939 69.4903 123.904 69.4369 123.882C69.3834 123.86 69.3252 123.852 69.2679 123.86C69.2106 123.867 69.1562 123.889 69.1098 123.923C65.6865 126.407 61.7575 128.107 57.6026 128.899C57.5564 128.907 57.5124 128.924 57.4735 128.95C57.4345 128.976 57.4015 129.01 57.3766 129.049C57.3517 129.089 57.3354 129.133 57.3289 129.179C57.3225 129.226 57.3259 129.273 57.339 129.318C58.3983 133.11 58.8995 139.037 54.4764 144.489C52.115 147.33 48.9837 143.176 52.115 140.345C54.0578 138.593 53.908 133.555 52.9986 129.674C52.9812 129.599 52.9382 129.532 52.877 129.485C52.8157 129.438 52.7399 129.414 52.6627 129.416C52.4819 129.421 52.2957 129.421 52.115 129.421C45.7238 129.431 39.5102 127.319 34.4486 123.417C34.4022 123.38 34.3473 123.357 34.2892 123.348C34.231 123.34 34.1717 123.347 34.1169 123.368C34.0622 123.389 34.014 123.425 33.977 123.47C33.94 123.516 33.9155 123.57 33.906 123.628C32.6917 131.648 37.5129 134.423 38.1999 136.479C38.9646 138.778 37.2077 140.825 35.0427 140.246C34.9958 140.232 34.952 140.209 34.9136 140.179C27.8553 134.877 28.4701 123.768 29.2452 118.42C29.2523 118.376 29.25 118.331 29.2384 118.289C29.2268 118.246 29.2062 118.206 29.178 118.172C25.2308 113.093 23.0939 106.84 23.1066 100.407C23.1066 88.6106 30.1494 78.4571 40.2616 73.9255C40.2623 73.9256 40.2629 73.9254 40.2636 73.9252C40.2642 73.9249 40.2648 73.9246 40.2653 73.9241C40.2658 73.9236 40.2661 73.923 40.2664 73.9224C40.2667 73.9218 40.2668 73.9211 40.2668 73.9204C41.822 71.9514 43.7184 69.1666 44.0079 67.2135C44.0174 67.1473 44.0465 67.0855 44.0913 67.0359C44.1362 66.9863 44.1948 66.9512 44.2597 66.9352C44.3246 66.9191 44.3928 66.9227 44.4556 66.9456C44.5184 66.9684 44.573 67.0095 44.6124 67.0636C45.3565 68.066 46.5088 69.9779 46.2556 71.993C46.2452 72.0602 46.2401 72.1273 46.2297 72.1945C46.209 72.3083 46.1833 72.4167 46.1574 72.5304C46.1315 72.6183 46.1109 72.7061 46.0799 72.794C46.4412 72.4924 46.7861 72.1716 47.1128 71.8328C47.8723 71.0527 48.8334 69.8797 49.2468 68.6241C49.2664 68.5571 49.3062 68.4978 49.3609 68.4544C49.4155 68.411 49.4822 68.3856 49.5519 68.3816C49.6216 68.3777 49.6908 68.3955 49.7499 68.4325C49.8091 68.4695 49.8553 68.5239 49.8823 68.5883C50.1508 69.2497 50.4662 70.1746 50.5747 71.1202C50.584 71.205 50.6247 71.2832 50.6887 71.3396C50.7528 71.396 50.8355 71.4264 50.9208 71.425C51.3188 71.4095 51.7166 71.3992 52.1145 71.3992C68.1378 71.3992 81.1281 84.3894 81.1281 100.408C81.1281 100.775 81.1229 101.136 81.1073 101.498C81.105 101.553 81.1163 101.608 81.14 101.658C81.1637 101.708 81.1993 101.751 81.2436 101.784C81.2878 101.817 81.3395 101.839 81.3941 101.848C81.4487 101.856 81.5046 101.852 81.5569 101.834C83.2827 101.229 85.4581 99.772 86.7705 96.3048C89.225 89.8459 89.4834 88.0374 88.7083 82.9994C87.9332 77.9614 91.6797 78.2201 92.4544 79.8991C93.2291 81.5781 94.9091 89.7164 91.8091 95.6586Z" fill="#FF6969"/>
<path d="M40.7827 102.952C40.6839 102.952 40.5879 102.919 40.5097 102.859C40.4315 102.798 40.3754 102.714 40.3503 102.618C40.1555 101.767 40.1136 100.888 40.2267 100.023C40.4812 98.1412 41.5051 96.7582 43.1878 96.0233C44.2874 95.5429 45.3268 95.5152 46.2771 95.9412C48.2249 96.8142 49.0541 99.2895 49.0885 99.3944C49.1218 99.5061 49.1102 99.6265 49.0561 99.7298C49.002 99.8331 48.9097 99.9112 48.7989 99.9475C48.6881 99.9838 48.5675 99.9754 48.4628 99.9241C48.358 99.8728 48.2775 99.7826 48.2382 99.6728C48.2312 99.6513 47.4936 97.4646 45.9084 96.7565C45.1986 96.4396 44.404 96.4688 43.5463 96.8434C42.1539 97.452 41.3368 98.5529 41.1177 100.116C41.0176 100.875 41.0511 101.645 41.2167 102.392C41.2465 102.507 41.2295 102.629 41.1694 102.731C41.1093 102.834 41.0111 102.908 40.8963 102.938C40.8592 102.947 40.821 102.952 40.7827 102.952Z" fill="black"/>
<path d="M54.2727 98.854C54.179 98.8539 54.0876 98.8244 54.0115 98.7696C53.9354 98.7148 53.8784 98.6375 53.8487 98.5486C53.5989 97.7157 53.5001 96.8448 53.5569 95.9771C53.6889 94.0909 54.6211 92.65 56.2528 91.8103C57.3211 91.2608 58.358 91.1659 59.3355 91.5303C61.3313 92.2732 62.3178 94.6736 62.3588 94.7754C62.4018 94.8852 62.3997 95.0076 62.353 95.1159C62.3063 95.2242 62.2188 95.3096 62.1094 95.3537C62 95.3978 61.8776 95.3969 61.7689 95.3512C61.6601 95.3056 61.5738 95.2188 61.5287 95.1099C61.5197 95.089 60.6445 92.9701 59.0199 92.3678C58.2892 92.0968 57.4962 92.177 56.6625 92.6063C55.3127 93.3008 54.569 94.4467 54.4518 96.0127C54.4012 96.7722 54.4845 97.5347 54.6978 98.2654C54.72 98.3327 54.726 98.4043 54.7152 98.4743C54.7043 98.5443 54.6771 98.6108 54.6356 98.6682C54.5941 98.7256 54.5397 98.7724 54.4766 98.8047C54.4136 98.837 54.3437 98.8539 54.2729 98.854H54.2727Z" fill="black"/>
<path d="M53.134 108.216C50.0882 108.216 47.7659 106.189 47.6496 106.086C47.6057 106.047 47.5698 106 47.5442 105.947C47.5185 105.894 47.5035 105.836 47.5 105.778C47.4965 105.719 47.5046 105.66 47.5239 105.605C47.5431 105.549 47.5731 105.498 47.6121 105.454C47.6511 105.41 47.6984 105.374 47.7513 105.349C47.8042 105.323 47.8616 105.308 47.9202 105.305C47.9789 105.301 48.0377 105.309 48.0932 105.328C48.1488 105.348 48.2 105.378 48.2439 105.417C48.2744 105.444 51.3412 108.109 54.7941 107.08C58.231 106.056 59.1735 101.692 59.1827 101.648C59.2078 101.533 59.2772 101.432 59.376 101.368C59.4747 101.304 59.5948 101.281 59.7102 101.305C59.8255 101.329 59.9269 101.397 59.9922 101.495C60.0576 101.593 60.0817 101.713 60.0593 101.829C59.8465 102.732 59.5132 103.604 59.0684 104.419C58.0859 106.23 56.6966 107.447 55.0498 107.938C54.4281 108.123 53.7828 108.217 53.134 108.216Z" fill="black"/>
<path d="M149.599 88.2978C149.561 89.2694 149.462 90.2377 149.303 91.1971C147.146 104.395 134.704 113.34 121.507 111.182C108.315 109.026 99.364 96.5835 101.522 83.386C101.659 82.5447 101.841 81.7213 102.056 80.9183C92.268 74.2712 92.8397 61.4532 94.716 60.0321C96.611 58.5932 98.6798 59.8057 98.4637 63.7862C98.2413 69.5668 101.8 74.3472 103.774 76.4294C108.395 67.216 118.609 61.6498 129.318 63.4005C139.711 65.0993 147.464 73.1784 149.239 82.9766C151.176 82.2724 154.597 80.2399 157.369 74.4625C157.756 73.3111 157.863 72.4647 157.884 71.9549C157.898 71.4787 158.084 71.0236 158.407 70.674C159.014 70.04 160.087 69.3673 161.473 70.4003C161.788 70.636 162.043 70.9438 162.214 71.298C162.386 71.6523 162.47 72.0425 162.46 72.436C162.373 75.5583 159.874 83.1553 149.599 88.2978Z" fill="#FFAAAA"/>
<path d="M135.202 92.5781C134.591 96.3161 129.45 98.5857 123.723 97.6497C117.992 96.7127 113.841 92.924 114.452 89.1863C114.569 88.4902 114.84 87.8294 115.248 87.2531C115.359 87.097 115.526 86.9897 115.714 86.953C115.902 86.9164 116.097 86.9533 116.259 87.0562C118.311 88.3408 121.559 89.4736 125.306 90.0861C128.754 90.6499 131.945 90.6584 134.268 90.2178C134.457 90.1815 134.652 90.2194 134.814 90.3236C134.976 90.4277 135.092 90.5902 135.137 90.7773C135.277 91.3675 135.299 91.9795 135.202 92.5781Z" fill="black"/>
<path d="M124.335 85.1616C124.27 85.1616 124.206 85.1476 124.147 85.1204C124.088 85.0932 124.036 85.0535 123.994 85.004C123.952 84.9546 123.921 84.8966 123.904 84.834C123.886 84.7715 123.883 84.7059 123.893 84.6418C124.043 83.723 123.822 82.7821 123.279 82.0261C122.735 81.2702 121.914 80.7611 120.995 80.6109C120.076 80.4607 119.135 80.6817 118.379 81.2252C117.623 81.7688 117.114 82.5903 116.964 83.5092C116.945 83.6263 116.88 83.7311 116.784 83.8003C116.687 83.8696 116.567 83.8978 116.45 83.8786C116.333 83.8595 116.228 83.7946 116.159 83.6982C116.09 83.6018 116.062 83.4819 116.081 83.3647C116.269 82.2116 116.908 81.1806 117.857 80.4985C118.805 79.8164 119.986 79.5391 121.139 79.7276C122.292 79.9161 123.323 80.5549 124.006 81.5036C124.688 82.4523 124.965 83.6331 124.776 84.7862C124.759 84.8909 124.706 84.9861 124.625 85.0548C124.544 85.1236 124.441 85.1614 124.335 85.1616Z" fill="black"/>
<path d="M135.07 86.9164C135.005 86.9164 134.941 86.9022 134.882 86.875C134.823 86.8477 134.771 86.808 134.729 86.7586C134.687 86.7092 134.656 86.6512 134.639 86.5887C134.621 86.5262 134.618 86.4607 134.628 86.3966C134.774 85.4794 134.552 84.5416 134.008 83.7884C133.464 83.0353 132.644 82.5283 131.728 82.3785C130.811 82.2287 129.872 82.4482 129.117 82.989C128.362 83.5299 127.852 84.3479 127.699 85.264C127.69 85.3222 127.669 85.3779 127.638 85.428C127.607 85.4782 127.567 85.5217 127.519 85.5562C127.471 85.5906 127.417 85.6153 127.36 85.6288C127.302 85.6423 127.243 85.6444 127.185 85.6349C127.127 85.6254 127.071 85.6045 127.021 85.5735C126.971 85.5424 126.928 85.5018 126.893 85.4539C126.859 85.406 126.834 85.3519 126.821 85.2945C126.808 85.2372 126.806 85.1777 126.816 85.1196C127.007 83.9695 127.647 82.9422 128.595 82.2629C129.543 81.5837 130.721 81.3079 131.872 81.496C133.023 81.6842 134.052 82.3208 134.734 83.2665C135.416 84.2122 135.696 85.3897 135.511 86.5411C135.494 86.6458 135.44 86.741 135.36 86.8098C135.279 86.8785 135.176 86.9163 135.07 86.9164Z" fill="black"/>
</svg>
